<?xml version="1.0" standalone="no"?>
<!DOCTYPE svg PUBLIC "-//W3C//DTD SVG 20010904//EN"
 "http://www.w3.org/TR/2001/REC-SVG-20010904/DTD/svg10.dtd">
<svg version="1.0" xmlns="http://www.w3.org/2000/svg"
 width="200.000000pt" height="200.000000pt" viewBox="0 0 200.000000 200.000000"
 preserveAspectRatio="xMidYMid meet">

<g transform="translate(0.000000,200.000000) scale(0.100000,-0.100000)"
fill="#000000" stroke="none">
<path d="M100 1405 l0 -176 63 3 62 3 3 133 3 132 190 0 190 0 -3 38 -3 37
-252 3 -253 2 0 -175z"/>
<path d="M1350 1530 l0 -40 205 0 205 0 0 -125 0 -125 60 0 60 0 0 165 0 165
-265 0 -265 0 0 -40z"/>
<path d="M1047 1333 c-53 -86 -168 -314 -162 -323 3 -6 16 -10 28 -10 19 0 38
29 114 172 67 127 89 176 81 185 -18 22 -37 14 -61 -24z"/>
<path d="M577 1217 c-111 -38 -147 -55 -145 -66 2 -10 51 -33 138 -63 141 -49
174 -56 186 -37 9 15 -6 23 -113 60 -51 18 -93 35 -93 39 0 4 42 21 93 39 118
40 125 45 108 65 -8 9 -16 16 -20 15 -3 0 -73 -23 -154 -52z"/>
<path d="M1261 1256 c-17 -20 11 -37 122 -72 48 -15 87 -31 87 -34 0 -3 -45
-20 -99 -38 -108 -35 -135 -54 -104 -71 27 -14 313 84 313 108 0 12 -39 30
-148 69 -81 28 -151 52 -154 52 -3 0 -11 -6 -17 -14z"/>
<path d="M414 800 c-56 -22 -73 -112 -30 -155 33 -32 83 -41 131 -21 21 9 36
19 32 22 -3 3 -14 1 -25 -5 -34 -18 -100 -13 -122 9 -45 45 -33 112 24 135 39
17 96 10 96 -11 0 -8 5 -14 10 -14 6 0 10 7 10 15 0 29 -78 44 -126 25z"/>
<path d="M580 800 c0 -5 5 -10 10 -10 6 0 10 -35 10 -85 l0 -85 83 2 82 2 -73
3 -73 4 3 37 c3 36 4 37 46 40 24 2 50 -2 58 -9 12 -9 14 -6 13 17 0 16 -3 23
-6 17 -3 -8 -25 -13 -59 -13 l-54 0 0 35 0 35 60 0 c33 0 60 -4 60 -10 0 -5 5
-10 10 -10 6 0 10 9 10 20 0 19 -7 20 -90 20 -53 0 -90 -4 -90 -10z"/>
<path d="M790 800 c0 -5 7 -10 15 -10 12 0 15 -17 15 -91 0 -57 4 -88 10 -84
6 3 10 26 10 51 l0 44 45 0 c25 0 45 -4 45 -10 0 -5 5 -10 10 -10 6 0 10 8 10
18 0 16 -7 18 -55 14 l-55 -4 0 36 0 36 54 0 c34 0 56 -5 59 -12 2 -7 8 -10
12 -6 4 4 5 14 2 23 -5 12 -24 15 -92 15 -50 0 -85 -4 -85 -10z"/>
<path d="M980 803 c1 -15 97 -177 107 -180 13 -5 106 163 101 179 -3 7 -23
-24 -47 -68 -23 -43 -46 -82 -49 -86 -4 -4 -27 31 -52 77 -40 75 -61 102 -60
78z"/>
<path d="M1235 790 c-3 -5 -1 -10 4 -10 6 0 11 5 11 10 0 6 -2 10 -4 10 -3 0
-8 -4 -11 -10z"/>
<path d="M100 595 l0 -175 253 2 252 3 3 38 3 37 -190 0 -190 0 -3 133 -3 132
-62 3 -63 3 0 -176z"/>
<path d="M1777 763 c-4 -3 -7 -64 -7 -135 l0 -128 -185 0 -185 0 0 -40 0 -40
250 0 250 0 0 175 0 175 -58 0 c-32 0 -62 -3 -65 -7z"/>
<path d="M1213 723 c13 -3 17 -15 17 -53 0 -27 5 -52 10 -55 6 -4 10 17 10 54
0 60 0 61 -27 60 -17 -1 -21 -3 -10 -6z"/>
<path d="M1312 718 c-22 -22 -15 -76 13 -94 29 -19 85 -9 93 16 4 12 2 13 -9
3 -21 -21 -77 -16 -89 7 -10 19 -8 20 44 20 62 0 72 7 50 38 -17 25 -81 31
-102 10z m87 -11 c15 -19 4 -27 -41 -27 -26 0 -38 4 -38 14 0 26 60 35 79 13z"/>
<path d="M1464 697 c7 -18 20 -47 29 -63 l15 -29 22 50 22 50 16 -42 c10 -23
20 -45 24 -49 4 -4 19 18 33 50 28 63 29 66 17 66 -5 0 -17 -19 -26 -42 l-18
-43 -19 43 c-11 23 -24 42 -28 42 -5 0 -17 -19 -26 -42 l-17 -43 -21 43 c-25
50 -44 57 -23 9z"/>
</g>
</svg>
